
            <svg data-logo="logo" xmlns="http://www.w3.org/2000/svg" viewBox="0 0 202 45">
                <g id="logogram" transform="translate(0, 2.5)"><path d="M0.25 20C0.25 8.9543 9.2043 0 20.25 0H46.5C57.5458 0 66.5 8.9543 66.5 20V40H20.25C9.2043 40 0.25 31.0458 0.25 20Z" fill="#4845D2"/><path d="M46.5 7.5H20.25C13.3464 7.5 7.75 13.0964 7.75 20C7.75 26.9036 13.3464 32.5 20.25 32.5H46.5C53.4036 32.5 59 26.9036 59 20C59 13.0964 53.4036 7.5 46.5 7.5Z" fill="#A5B4FC"/><path d="M20.25 26.25C23.7018 26.25 26.5 23.4518 26.5 20C26.5 16.5482 23.7018 13.75 20.25 13.75C16.7982 13.75 14 16.5482 14 20C14 23.4518 16.7982 26.25 20.25 26.25Z" fill="#000000"/><path d="M17.75 18.75C18.4404 18.75 19 18.1904 19 17.5C19 16.8096 18.4404 16.25 17.75 16.25C17.0596 16.25 16.5 16.8096 16.5 17.5C16.5 18.1904 17.0596 18.75 17.75 18.75Z" fill="#ffffff"/><path d="M47.75 26.25C51.2018 26.25 54 23.4518 54 20C54 16.5482 51.2018 13.75 47.75 13.75C44.2982 13.75 41.5 16.5482 41.5 20C41.5 23.4518 44.2982 26.25 47.75 26.25Z" fill="#000000"/><path d="M45.25 18.75C45.9404 18.75 46.5 18.1904 46.5 17.5C46.5 16.8096 45.9404 16.25 45.25 16.25C44.5596 16.25 44 16.8096 44 17.5C44 18.1904 44.5596 18.75 45.25 18.75Z" fill="#ffffff"/></g>
                <g id="logotype" transform="translate(68, 0)"><path fill="#193be6" d="M13 39.30Q13 42.24 11.62 43.62Q10.24 45 7.38 45Q4.51 45 1.30 44.70L1.30 44.70L1.30 40.65Q3.64 40.80 6.10 40.80L6.10 40.80Q6.79 40.80 7.19 40.40Q7.60 39.99 7.60 39.30L7.60 39.30L7.60 27.90L3.70 27.90L3.70 23.70L13 23.70L13 39.30ZM32.02 33.30L32.02 40.20Q32.02 42.45 30.74 43.73Q29.47 45 27.22 45L27.22 45L20.32 45Q18.07 45 16.79 43.73Q15.52 42.45 15.52 40.20L15.52 40.20L15.52 33.30Q15.52 31.05 16.79 29.78Q18.07 28.50 20.32 28.50L20.32 28.50L27.22 28.50Q29.47 28.50 30.74 29.78Q32.02 31.05 32.02 33.30L32.02 33.30ZM26.77 39.75L26.77 33.75Q26.77 32.55 25.57 32.55L25.57 32.55L21.97 32.55Q20.77 32.55 20.77 33.75L20.77 33.75L20.77 39.75Q20.77 40.95 21.97 40.95L21.97 40.95L25.57 40.95Q26.77 40.95 26.77 39.75L26.77 39.75ZM44.89 39.45L44.89 33.60Q44.89 33.15 44.59 32.85Q44.29 32.55 43.84 32.55L43.84 32.55L43.09 32.55Q41.83 32.55 40.91 32.67Q40 32.79 39.49 32.85L39.49 32.85L39.49 40.65L43.69 40.65Q44.89 40.65 44.89 39.45L44.89 39.45ZM39.49 23.70L39.49 29.10Q42.40 28.50 44.59 28.50L44.59 28.50L45.64 28.50Q47.68 28.50 48.91 29.73Q50.14 30.96 50.14 33L50.14 33L50.14 39.90Q50.14 42.15 48.87 43.43Q47.59 44.70 45.34 44.70L45.34 44.70L34.24 44.70L34.24 23.70L39.49 23.70ZM70.66 32.70L70.66 44.25Q63.64 45 57.76 45L57.76 45Q54.82 45 53.44 43.62Q52.06 42.24 52.06 39.30L52.06 39.30L52.06 29.70Q52.06 26.55 53.49 25.13Q54.91 23.70 58.06 23.70L58.06 23.70L68.86 23.70L68.86 27.90L59.26 27.90Q57.46 27.90 57.46 29.70L57.46 29.70L57.46 39.30Q57.46 39.99 57.87 40.40Q58.27 40.80 58.96 40.80L58.96 40.80Q62.41 40.80 65.26 40.65L65.26 40.65L65.26 36.30L61.36 36.30L61.36 32.70L70.66 32.70ZM81.73 32.25L79.03 32.25Q77.83 32.25 77.83 33.45L77.83 33.45L77.83 35.10L82.93 35.10L82.93 33.45Q82.93 32.25 81.73 32.25L81.73 32.25ZM87.58 40.65L87.58 44.40Q81.79 45 77.08 45L77.08 45Q75.04 45 73.81 43.77Q72.58 42.54 72.58 40.50L72.58 40.50L72.58 33.30Q72.58 31.05 73.86 29.78Q75.13 28.50 77.38 28.50L77.38 28.50L83.38 28.50Q85.63 28.50 86.91 29.78Q88.18 31.05 88.18 33.30L88.18 33.30L88.18 38.85L77.83 38.85L77.83 40.05Q77.83 40.50 78.13 40.80Q78.43 41.10 78.88 41.10L78.88 41.10Q81.85 41.10 87.58 40.65L87.58 40.65ZM100.30 32.85L99.25 32.85Q97.66 32.85 95.65 33.45L95.65 33.45L95.65 44.70L90.40 44.70L90.40 28.80L95.05 28.80L95.35 30.30Q96.76 29.37 98.25 28.94Q99.73 28.50 100.75 28.50L100.75 28.50L102.10 28.50Q104.14 28.50 105.37 29.73Q106.60 30.96 106.60 33L106.60 33L106.60 44.70L101.35 44.70L101.35 33.90Q101.35 33.45 101.05 33.15Q100.75 32.85 100.30 32.85L100.30 32.85ZM107.92 29.40L115.42 29.40L115.42 44.70L110.17 44.70L110.17 33.45L107.92 33.45L107.92 29.40ZM110.17 27.60L110.17 23.40L115.42 23.40L115.42 27.60L110.17 27.60ZM126.79 32.25L124.09 32.25Q122.89 32.25 122.89 33.45L122.89 33.45L122.89 35.10L127.99 35.10L127.99 33.45Q127.99 32.25 126.79 32.25L126.79 32.25ZM132.64 40.65L132.64 44.40Q126.85 45 122.14 45L122.14 45Q120.10 45 118.87 43.77Q117.64 42.54 117.64 40.50L117.64 40.50L117.64 33.30Q117.64 31.05 118.91 29.78Q120.19 28.50 122.44 28.50L122.44 28.50L128.44 28.50Q130.69 28.50 131.97 29.78Q133.24 31.05 133.24 33.30L133.24 33.30L133.24 38.85L122.89 38.85L122.89 40.05Q122.89 40.50 123.19 40.80Q123.49 41.10 123.94 41.10L123.94 41.10Q126.91 41.10 132.64 40.65L132.64 40.65Z"/></g>
                
            </svg>
        