
            <svg data-logo="logo" xmlns="http://www.w3.org/2000/svg" viewBox="0 0 168 45">
                <g id="logogram" transform="translate(0, 5.5)"><path d="M16.0573 0H37.1389L21.6397 22.9729H0.558105L16.0573 0Z" fill="#007AFF"/><path d="M16.9805 25.102L10.9773 34H33.0589L48.5581 11.0271H32.2605L22.7645 25.102H16.9805Z" fill="#312ECB"/></g>
                <g id="logotype" transform="translate(50, 0)"><path fill="#193be6" d="M20.80 32.70L20.80 44.25Q13.78 45 7.90 45L7.90 45Q4.96 45 3.58 43.62Q2.20 42.24 2.20 39.30L2.20 39.30L2.20 29.70Q2.20 26.55 3.63 25.13Q5.05 23.70 8.20 23.70L8.20 23.70L19 23.70L19 27.90L9.40 27.90Q7.60 27.90 7.60 29.70L7.60 29.70L7.60 39.30Q7.60 39.99 8.00 40.40Q8.41 40.80 9.10 40.80L9.10 40.80Q12.55 40.80 15.40 40.65L15.40 40.65L15.40 36.30L11.50 36.30L11.50 32.70L20.80 32.70ZM34.72 33.15L32.17 33.15Q30.28 33.15 28.27 34.05L28.27 34.05L28.27 44.70L23.02 44.70L23.02 28.80L27.67 28.80L27.97 30.75Q30.55 28.50 33.37 28.50L33.37 28.50L34.72 28.50L34.72 33.15ZM51.94 33.30L51.94 40.20Q51.94 42.45 50.67 43.73Q49.39 45 47.14 45L47.14 45L40.24 45Q37.99 45 36.72 43.73Q35.44 42.45 35.44 40.20L35.44 40.20L35.44 33.30Q35.44 31.05 36.72 29.78Q37.99 28.50 40.24 28.50L40.24 28.50L47.14 28.50Q49.39 28.50 50.67 29.78Q51.94 31.05 51.94 33.30L51.94 33.30ZM46.69 39.75L46.69 33.75Q46.69 32.55 45.49 32.55L45.49 32.55L41.89 32.55Q40.69 32.55 40.69 33.75L40.69 33.75L40.69 39.75Q40.69 40.95 41.89 40.95L41.89 40.95L45.49 40.95Q46.69 40.95 46.69 39.75L46.69 39.75ZM67.96 28.80L70.66 38.40L73.36 28.80L79.06 28.80L74.11 44.70L68.56 44.70L65.56 35.10L62.56 44.70L57.01 44.70L52.06 28.80L57.76 28.80L60.46 38.40L63.16 28.80L67.96 28.80ZM93.58 39L93.58 29.40Q93.58 27.60 91.78 27.60L91.78 27.60L86.68 27.60Q84.88 27.60 84.88 29.40L84.88 29.40L84.88 39Q84.88 40.80 86.68 40.80L86.68 40.80L91.78 40.80Q93.58 40.80 93.58 39L93.58 39ZM98.98 29.40L98.98 39Q98.98 42.15 97.56 43.58Q96.13 45 92.98 45L92.98 45L85.48 45Q82.33 45 80.91 43.58Q79.48 42.15 79.48 39L79.48 39L79.48 29.40Q79.48 26.25 80.91 24.83Q82.33 23.40 85.48 23.40L85.48 23.40L92.98 23.40Q96.13 23.40 97.56 24.83Q98.98 26.25 98.98 29.40L98.98 29.40ZM111.10 32.85L110.05 32.85Q108.46 32.85 106.45 33.45L106.45 33.45L106.45 44.70L101.20 44.70L101.20 28.80L105.85 28.80L106.15 30.30Q107.56 29.37 109.05 28.94Q110.53 28.50 111.55 28.50L111.55 28.50L112.90 28.50Q114.94 28.50 116.17 29.73Q117.40 30.96 117.40 33L117.40 33L117.40 44.70L112.15 44.70L112.15 33.90Q112.15 33.45 111.85 33.15Q111.55 32.85 111.10 32.85L111.10 32.85Z"/></g>
                
            </svg>
        